HIERARCHY
ROOT hip
{
  OFFSET 5.51535 103.731 -2.80141
  CHANNELS 6 Xposition Yposition Zposition Zrotation Xrotation Yrotation
  JOINT abdomen
  {
    OFFSET 0 -1.186 -1.5018
    CHANNELS 6 Xposition Yposition Zposition Zrotation Xrotation Yrotation
    JOINT abdomen2
    {
      OFFSET 0 9.964 0.2134
      CHANNELS 6 Xposition Yposition Zposition Zrotation Xrotation Yrotation
      JOINT chest
      {
        OFFSET 0 13.134 -3.2573
        CHANNELS 6 Xposition Yposition Zposition Zrotation Xrotation Yrotation
        JOINT neck
        {
          OFFSET 0 20.686 -1.6905
          CHANNELS 6 Xposition Yposition Zposition Zrotation Xrotation Yrotation
          JOINT head
          {
            OFFSET 0 7.23801 -0.1237
            CHANNELS 6 Xposition Yposition Zposition Zrotation Xrotation Yrotation
            End Site
            {
              OFFSET 0 0 0
            }
          }
        }
        JOINT lCollar
        {
          OFFSET 1.7069 20.075 5.0056
          CHANNELS 6 Xposition Yposition Zposition Zrotation Xrotation Yrotation
          JOINT lShldr
          {
            OFFSET 13.6458 -0.0470195 -4.849
            CHANNELS 6 Xposition Yposition Zposition Zrotation Xrotation Yrotation
            JOINT lForeArm
            {
              OFFSET 28.3255 -0.97589 2.2888
              CHANNELS 6 Xposition Yposition Zposition Zrotation Xrotation Yrotation
              JOINT lHand
              {
                OFFSET 22.1583 -0.529998 10.8316
                CHANNELS 6 Xposition Yposition Zposition Zrotation Xrotation Yrotation
                JOINT lThumb1
                {
                  OFFSET 0.786 0.111997 2.5817
                  CHANNELS 6 Xposition Yposition Zposition Zrotation Xrotation Yrotation
                  JOINT lThumb2
                  {
                    OFFSET 0.360097 -0.877999 4.2331
                    CHANNELS 6 Xposition Yposition Zposition Zrotation Xrotation Yrotation
                    JOINT lThumb2_End
                    {
                      OFFSET 1.8127 -1.21601 2.2227
                      CHANNELS 6 Xposition Yposition Zposition Zrotation Xrotation Yrotation
                      End Site
                      {
                        OFFSET 0.0180981 -0.012195 0.0222007
                      }
                    }
                  }
                }
                JOINT lCarpal1
                {
                  OFFSET 0.9571 1.114 1.7695
                  CHANNELS 6 Xposition Yposition Zposition Zrotation Xrotation Yrotation
                  JOINT lIndex1
                  {
                    OFFSET 4.12461 0.486992 4.1451
                    CHANNELS 6 Xposition Yposition Zposition Zrotation Xrotation Yrotation
                    JOINT lIndex2
                    {
                      OFFSET 3.4052 -1.45401 2.7682
                      CHANNELS 6 Xposition Yposition Zposition Zrotation Xrotation Yrotation
                      JOINT lIndex2_End
                      {
                        OFFSET 1.45309 -1.79499 1.2713
                        CHANNELS 6 Xposition Yposition Zposition Zrotation Xrotation Yrotation
                        End Site
                        {
                          OFFSET 0.0144979 -0.0179083 0.0126995
                        }
                      }
                    }
                  }
                  JOINT lMid1
                  {
                    OFFSET 5.6954 0.209987 2.1184
                    CHANNELS 6 Xposition Yposition Zposition Zrotation Xrotation Yrotation
                    JOINT lMid2
                    {
                      OFFSET 3.9766 -1.53999 2.3863
                      CHANNELS 6 Xposition Yposition Zposition Zrotation Xrotation Yrotation
                      JOINT lMid2_End
                      {
                        OFFSET 1.4042 -1.926 1.125
                        CHANNELS 6 Xposition Yposition Zposition Zrotation Xrotation Yrotation
                        End Site
                        {
                          OFFSET 0.013999 -0.0193044 0.011301
                        }
                      }
                    }
                  }
                }
                JOINT lCarpal2
                {
                  OFFSET 2.0956 0.66 -0.3894
                  CHANNELS 6 Xposition Yposition Zposition Zrotation Xrotation Yrotation
                  JOINT lRing1
                  {
                    OFFSET 5.0395 -0.090013 2.4971
                    CHANNELS 6 Xposition Yposition Zposition Zrotation Xrotation Yrotation
                    JOINT lRing2
                    {
                      OFFSET 3.7921 -1.55199 1.4806
                      CHANNELS 6 Xposition Yposition Zposition Zrotation Xrotation Yrotation
                      JOINT lRing2_End
                      {
                        OFFSET 1.4655 -1.808 0.9609
                        CHANNELS 6 Xposition Yposition Zposition Zrotation Xrotation Yrotation
                        End Site
                        {
                          OFFSET 0.0147015 -0.0181014 0.00959957
                        }
                      }
                    }
                  }
                  JOINT lPinky1
                  {
                    OFFSET 4.9141 -1.269 0.3591
                    CHANNELS 6 Xposition Yposition Zposition Zrotation Xrotation Yrotation
                    JOINT lPinky2
                    {
                      OFFSET 3.1477 -1.685 0.8462
                      CHANNELS 6 Xposition Yposition Zposition Zrotation Xrotation Yrotation
                      JOINT lPinky2_End
                      {
                        OFFSET 0.805498 -1.58501 0.795499
                        CHANNELS 6 Xposition Yposition Zposition Zrotation Xrotation Yrotation
                        End Site
                        {
                          OFFSET 0.00809703 -0.0157944 0.00799848
                        }
                      }
                    }
                  }
                }
              }
            }
          }
        }
        JOINT rCollar
        {
          OFFSET -1.7069 20.075 5.0056
          CHANNELS 6 Xposition Yposition Zposition Zrotation Xrotation Yrotation
          JOINT rShldr
          {
            OFFSET -13.6458 -0.0470107 -4.849
            CHANNELS 6 Xposition Yposition Zposition Zrotation Xrotation Yrotation
            JOINT rForeArm
            {
              OFFSET -28.3255 -0.975895 2.2888
              CHANNELS 6 Xposition Yposition Zposition Zrotation Xrotation Yrotation
              JOINT rHand
              {
                OFFSET -22.1583 -0.530007 10.8316
                CHANNELS 6 Xposition Yposition Zposition Zrotation Xrotation Yrotation
                JOINT rThumb1
                {
                  OFFSET -0.785997 0.112005 2.5817
                  CHANNELS 6 Xposition Yposition Zposition Zrotation Xrotation Yrotation
                  JOINT rThumb2
                  {
                    OFFSET -0.360106 -0.877994 4.2331
                    CHANNELS 6 Xposition Yposition Zposition Zrotation Xrotation Yrotation
                    JOINT rThumb2_End
                    {
                      OFFSET -1.8127 -1.216 2.2227
                      CHANNELS 6 Xposition Yposition Zposition Zrotation Xrotation Yrotation
                      End Site
                      {
                        OFFSET -0.0180972 -0.0121973 0.0222005
                      }
                    }
                  }
                }
                JOINT rCarpal1
                {
                  OFFSET -0.9571 1.114 1.7695
                  CHANNELS 6 Xposition Yposition Zposition Zrotation Xrotation Yrotation
                  JOINT rIndex1
                  {
                    OFFSET -4.1246 0.487011 4.1451
                    CHANNELS 6 Xposition Yposition Zposition Zrotation Xrotation Yrotation
                    JOINT rIndex2
                    {
                      OFFSET -3.4052 -1.45401 2.7682
                      CHANNELS 6 Xposition Yposition Zposition Zrotation Xrotation Yrotation
                      JOINT rIndex2_End
                      {
                        OFFSET -1.4531 -1.795 1.2713
                        CHANNELS 6 Xposition Yposition Zposition Zrotation Xrotation Yrotation
                        End Site
                        {
                          OFFSET -0.0145077 -0.0180048 0.0127017
                        }
                      }
                    }
                  }
                  JOINT rMid1
                  {
                    OFFSET -5.6954 0.210002 2.1184
                    CHANNELS 6 Xposition Yposition Zposition Zrotation Xrotation Yrotation
                    JOINT rMid2
                    {
                      OFFSET -3.9766 -1.54 2.3863
                      CHANNELS 6 Xposition Yposition Zposition Zrotation Xrotation Yrotation
                      JOINT rMid2_End
                      {
                        OFFSET -1.4042 -1.926 1.125
                        CHANNELS 6 Xposition Yposition Zposition Zrotation Xrotation Yrotation
                        End Site
                        {
                          OFFSET -0.0139948 -0.0192916 0.0112994
                        }
                      }
                    }
                  }
                }
                JOINT rCarpal2
                {
                  OFFSET -2.0956 0.66 -0.3894
                  CHANNELS 6 Xposition Yposition Zposition Zrotation Xrotation Yrotation
                  JOINT rRing1
                  {
                    OFFSET -5.03951 -0.0899879 2.4971
                    CHANNELS 6 Xposition Yposition Zposition Zrotation Xrotation Yrotation
                    JOINT rRing2
                    {
                      OFFSET -3.7921 -1.55201 1.4806
                      CHANNELS 6 Xposition Yposition Zposition Zrotation Xrotation Yrotation
                      JOINT rRing2_End
                      {
                        OFFSET -1.4655 -1.808 0.960901
                        CHANNELS 6 Xposition Yposition Zposition Zrotation Xrotation Yrotation
                        End Site
                        {
                          OFFSET -0.0146934 -0.0180999 0.00959832
                        }
                      }
                    }
                  }
                  JOINT rPinky1
                  {
                    OFFSET -4.91411 -1.26899 0.359202
                    CHANNELS 6 Xposition Yposition Zposition Zrotation Xrotation Yrotation
                    JOINT rPinky2
                    {
                      OFFSET -3.14769 -1.68501 0.846199
                      CHANNELS 6 Xposition Yposition Zposition Zrotation Xrotation Yrotation
                      JOINT rPinky2_End
                      {
                        OFFSET -0.805498 -1.585 0.7955
                        CHANNELS 6 Xposition Yposition Zposition Zrotation Xrotation Yrotation
                        End Site
                        {
                          OFFSET -0.00810035 -0.0158035 0.00800029
                        }
                      }
                    }
                  }
                }
              }
            }
          }
        }
      }
    }
  }
  JOINT lThigh
  {
    OFFSET 8.367 -8.2066 0.5982
    CHANNELS 6 Xposition Yposition Zposition Zrotation Xrotation Yrotation
    JOINT lShin
    {
      OFFSET 2.1923 -43.463 -0.4932
      CHANNELS 6 Xposition Yposition Zposition Zrotation Xrotation Yrotation
      JOINT lFoot
      {
        OFFSET 0.733301 -45.8593 -2.6451
        CHANNELS 6 Xposition Yposition Zposition Zrotation Xrotation Yrotation
        End Site
        {
          OFFSET 2.6618 -4.2699 12.3931
        }
      }
    }
  }
  JOINT rThigh
  {
    OFFSET -8.367 -8.2066 0.5982
    CHANNELS 6 Xposition Yposition Zposition Zrotation Xrotation Yrotation
    JOINT rShin
    {
      OFFSET -2.1923 -43.463 -0.4931
      CHANNELS 6 Xposition Yposition Zposition Zrotation Xrotation Yrotation
      JOINT rFoot
      {
        OFFSET -0.733299 -45.8593 -2.6451
        CHANNELS 6 Xposition Yposition Zposition Zrotation Xrotation Yrotation
        End Site
        {
          OFFSET -2.6618 -4.2699 12.3931
        }
      }
    }
  }
}
MOTION
Frames:	4
Frame Time:	0.0333333
16.8683 32.5871 -48.0709 12.8006 10.1769 -55.1353 -7.64956e-007 -1.186 -1.5018 -0.153272 -2.78444 1.52611 3.80827e-008 9.96399 0.2134 -0.23253 -5.57195 3.05017 9.56036e-007 13.134 -3.2573 -0.232532 -5.57195 3.05016 5.44809e-007 20.686 -1.6905 0.173844 0.714285 -4.39528 -1.72961e-006 7.238 -0.1237 6.57727 -0.317214 -2.25097 1.7069 20.075 5.0056 2.95826 -2.02177 -17.8015 13.6458 -0.0470122 -4.84899 -53.8107 -1.55055 -47.6088 28.3255 -0.975895 2.2888 -11.6229 -14.746 -44.9681 22.1583 -0.529989 10.8316 -0.290458 -23.3428 9.31235 0.786003 0.111997 2.58171 29.0017 36.8211 -34.7961 0.360099 -0.877998 4.2331 -6.33704 -0.117339 -11.5742 1.8127 -1.21601 2.2227 6.48485 1.48413 12.0601 0.9571 1.114 1.7695 -3.18055e-015 0 -1.59028e-015 4.1246 0.486992 4.1451 -4.88728 4.53866 12.6178 3.4052 -1.45401 2.7682 -36.3635 10.033 17.8993 1.4531 -1.79499 1.2713 -37.4307 10.1387 18.4809 5.6954 0.209987 2.1184 -1.587 -0.577029 1.61799 3.9766 -1.53999 2.3863 -43.8283 12.1761 22.7531 1.4042 -1.926 1.125 -9.03164 4.06863 4.02212 2.0956 0.66 -0.3894 -3.18055e-015 0 -1.59028e-015 5.0395 -0.0900123 2.4971 -8.44085 -1.94815 5.79526 3.7921 -1.55199 1.4806 -14.2679 6.48283 7.41474 1.4655 -1.808 0.960901 -15.7293 7.01833 8.23431 4.9141 -1.269 0.359104 10.4039 -12.5937 2.33183 3.1477 -1.685 0.846199 -18.2186 8.51742 9.60863 0.805499 -1.58501 0.795501 -8.80546 4.59369 4.3982 -1.7069 20.075 5.0056 -6.93188 -1.06526 30.815 -13.6458 -0.0470148 -4.849 36.9006 -29.3994 55.5086 -28.3255 -0.975887 2.28879 20.266 1.34602 35.9996 -22.1583 -0.530012 10.8316 -36.4412 -49.5695 -33.1889 -0.786001 0.112005 2.5817 -29.9217 33.5002 36.3093 -0.360104 -0.877996 4.2331 3.27636 -2.39823 9.40456 -1.81269 -1.216 2.2227 -4.4436 5.02814 -15.268 -0.9571 1.114 1.7695 6.36111e-015 -1.59028e-015 7.95139e-016 -4.12461 0.487011 4.1451 13.181 6.35508 -12.1375 -3.4052 -1.45401 2.7682 44.3511 10.8048 -10.7982 -1.4531 -1.795 1.2713 45.4781 10.9508 -11.16 -5.6954 0.210001 2.1184 7.07148 1.28864 -2.16554 -3.9766 -1.54 2.3863 52.3089 13.53 -14.1043 -1.4042 -1.926 1.125 15.1721 5.32231 -2.78762 -2.0956 0.66 -0.3894 6.36111e-015 -1.59028e-015 7.95139e-016 -5.03951 -0.0899888 2.4971 14.4791 -0.343077 -5.3092 -3.7921 -1.55201 1.4806 20.9794 7.69274 -5.18754 -1.4655 -1.808 0.960898 22.5759 8.1806 -5.68283 -4.91411 -1.26899 0.359203 -6.22065 -8.66595 -6.14887 -3.1477 -1.68501 0.846198 25.2633 9.75598 -6.4017 -0.8055 -1.585 0.795497 14.9452 6.18832 -3.30342 8.36701 -8.20661 0.598201 57.7103 -35.3229 38.4972 2.19229 -43.463 -0.493197 -179.754 35.5711 -175.609 0.733298 -45.8593 -2.64509 10.3892 18.5884 -40.9285 -8.36701 -8.20661 0.598203 -53.9858 -29.2406 -19.0678 -2.19235 -43.463 -0.493126 163.884 33.576 -154.395 -0.733267 -45.8593 -2.64511 -4.19472 26.4724 42.7279 
16.9109 32.6416 -48.0903 12.9536 10.3644 -55.0543 2.06067e-006 -1.186 -1.5018 -0.14643 -2.8838 1.50806 3.07678e-008 9.964 0.213401 -0.217124 -5.77043 3.01449 -1.13451e-006 13.134 -3.2573 -0.217124 -5.77043 3.01451 -1.0535e-006 20.686 -1.6905 0.117113 0.208234 -4.33915 -7.3525e-007 7.23801 -0.1237 6.84682 -0.335431 -2.31081 1.7069 20.075 5.0056 2.95763 -1.99623 -17.8065 13.6458 -0.0470101 -4.849 -53.9148 -1.33201 -47.2571 28.3255 -0.975893 2.2888 -11.7617 -14.6197 -45.362 22.1583 -0.52999 10.8316 -0.0473006 -23.2854 9.48904 0.786003 0.111997 2.5817 29.0017 36.8211 -34.7961 0.360098 -0.878 4.2331 -6.33704 -0.117341 -11.5742 1.8127 -1.21601 2.2227 6.48484 1.48413 12.0601 0.9571 1.114 1.7695 -3.18055e-015 7.95139e-016 -7.95139e-016 4.1246 0.486993 4.1451 -4.8873 4.53864 12.6178 3.4052 -1.45401 2.7682 -36.3635 10.033 17.8993 1.4531 -1.79499 1.2713 -37.4307 10.1387 18.4809 5.6954 0.209987 2.1184 -1.58702 -0.577047 1.618 3.9766 -1.53999 2.3863 -43.8283 12.1761 22.7531 1.4042 -1.926 1.125 -9.03163 4.06864 4.02212 2.0956 0.66 -0.3894 -3.18055e-015 7.95139e-016 -7.95139e-016 5.0395 -0.0900123 2.4971 -8.44088 -1.94816 5.79527 3.7921 -1.55199 1.4806 -14.2679 6.48282 7.41474 1.4655 -1.808 0.960896 -15.7293 7.01832 8.23431 4.9141 -1.269 0.359102 10.4039 -12.5937 2.33183 3.1477 -1.685 0.846198 -18.2186 8.51743 9.60863 0.805497 -1.58501 0.795503 -8.80545 4.59369 4.3982 -1.7069 20.075 5.0056 -6.89542 -1.04642 30.6686 -13.6458 -0.0470151 -4.849 37.0809 -29.2304 55.3073 -28.3255 -0.975882 2.28879 20.3142 1.64051 36.3118 -22.1583 -0.53 10.8316 -36.7097 -49.5584 -33.4412 -0.786001 0.112004 2.5817 -29.9217 33.5002 36.3093 -0.360108 -0.877991 4.2331 3.27636 -2.39823 9.40457 -1.8127 -1.216 2.2227 -4.4436 5.02814 -15.268 -0.9571 1.114 1.7695 3.18055e-015 2.38542e-015 -0 -4.12461 0.487012 4.1451 13.1811 6.35509 -12.1375 -3.4052 -1.45401 2.7682 44.3511 10.8048 -10.7982 -1.4531 -1.795 1.2713 45.4781 10.9508 -11.16 -5.6954 0.210001 2.1184 7.07149 1.28865 -2.16553 -3.9766 -1.54 2.3863 52.3089 13.53 -14.1043 -1.4042 -1.926 1.125 15.1721 5.3223 -2.78763 -2.0956 0.66 -0.3894 3.18055e-015 2.38542e-015 -0 -5.03951 -0.0899866 2.4971 14.4791 -0.343069 -5.30919 -3.7921 -1.55201 1.4806 20.9794 7.69274 -5.18754 -1.4655 -1.808 0.960898 22.5759 8.18063 -5.68283 -4.91411 -1.26899 0.359204 -6.22064 -8.66594 -6.14886 -3.1477 -1.68501 0.846198 25.2633 9.75599 -6.40171 -0.8055 -1.58499 0.795498 14.9452 6.18832 -3.30339 8.36701 -8.2066 0.598207 57.7904 -35.7376 38.6902 2.1923 -43.463 -0.493194 -179.722 35.4807 -175.758 0.733295 -45.8593 -2.6451 10.1197 18.6567 -40.5969 -8.36701 -8.20661 0.598194 -53.8446 -29.3616 -19.2443 -2.19223 -43.463 -0.493051 163.855 33.5653 -154.267 -0.733289 -45.8593 -2.64508 -4.03087 26.0474 42.193 
16.8791 32.7596 -48.0739 13.1127 10.6269 -54.9506 4.83333e-007 -1.186 -1.5018 -0.122369 -2.98952 1.48295 -1.38898e-006 9.964 0.213398 -0.167443 -5.98119 2.96554 7.66631e-007 13.134 -3.2573 -0.167445 -5.98119 2.96556 -8.73758e-007 20.686 -1.6905 0.0542896 -0.446963 -4.21519 -9.63123e-007 7.23803 -0.123702 6.9839 -0.0639984 -2.36346 1.7069 20.075 5.0056 2.9523 -1.96694 -17.7925 13.6458 -0.0470154 -4.849 -54.0661 -1.02991 -46.6275 28.3255 -0.9759 2.2888 -12.1278 -14.5242 -46.2978 22.1583 -0.529989 10.8316 0.388433 -23.0313 9.845 0.786003 0.111997 2.58171 29.0017 36.8211 -34.7961 0.360098 -0.877999 4.2331 -6.33704 -0.117337 -11.5742 1.8127 -1.21601 2.2227 6.48485 1.48412 12.0601 0.9571 1.114 1.7695 3.18055e-015 1.59028e-015 -0 4.1246 0.486992 4.14511 -4.88728 4.53864 12.6178 3.4052 -1.454 2.7682 -36.3635 10.033 17.8993 1.4531 -1.79499 1.2713 -37.4307 10.1387 18.4809 5.6954 0.209989 2.1184 -1.58699 -0.577044 1.61799 3.9766 -1.53999 2.3863 -43.8283 12.1761 22.7531 1.4042 -1.926 1.125 -9.03163 4.06861 4.02212 2.0956 0.66 -0.3894 3.18055e-015 1.59028e-015 -0 5.0395 -0.0900128 2.4971 -8.44085 -1.94817 5.79526 3.7921 -1.55199 1.4806 -14.2679 6.48281 7.41474 1.4655 -1.808 0.960902 -15.7293 7.01832 8.23431 4.9141 -1.269 0.359103 10.4039 -12.5937 2.33182 3.1477 -1.685 0.846202 -18.2185 8.51743 9.60862 0.805498 -1.58501 0.795502 -8.80546 4.59367 4.3982 -1.7069 20.075 5.0056 -6.82467 -1.03911 30.4113 -13.6458 -0.0470142 -4.849 37.2531 -28.8924 55.0898 -28.3255 -0.975891 2.28881 20.264 2.02961 36.9624 -22.1583 -0.53001 10.8316 -37.2764 -49.4783 -34.0469 -0.786001 0.112005 2.5817 -29.9218 33.5002 36.3093 -0.360106 -0.877993 4.2331 3.27636 -2.39823 9.40457 -1.81269 -1.216 2.2227 -4.4436 5.02813 -15.268 -0.9571 1.114 1.7695 -6.36111e-015 0 7.95139e-016 -4.12461 0.487013 4.1451 13.181 6.3551 -12.1375 -3.4052 -1.45401 2.7682 44.351 10.8048 -10.7982 -1.4531 -1.795 1.2713 45.4781 10.9508 -11.1601 -5.6954 0.210002 2.1184 7.07146 1.28866 -2.16554 -3.9766 -1.54 2.3863 52.3089 13.53 -14.1043 -1.4042 -1.926 1.125 15.1721 5.3223 -2.78763 -2.0956 0.66 -0.3894 -6.36111e-015 0 7.95139e-016 -5.03951 -0.0899869 2.4971 14.479 -0.34308 -5.3092 -3.7921 -1.55201 1.4806 20.9794 7.69274 -5.18754 -1.4655 -1.808 0.960903 22.5759 8.18061 -5.68282 -4.91411 -1.26899 0.359201 -6.22069 -8.66593 -6.14888 -3.1477 -1.68501 0.846201 25.2632 9.75598 -6.40169 -0.8055 -1.585 0.795496 14.9452 6.18832 -3.30338 8.36701 -8.20661 0.598201 57.7923 -36.1264 38.8408 2.1923 -43.463 -0.493197 -179.696 35.5045 -175.925 0.733292 -45.8593 -2.64509 9.78232 18.5959 -40.1278 -8.36701 -8.20661 0.598201 -53.4816 -29.44 -19.4428 -2.19234 -43.463 -0.493123 163.775 33.6813 -154.12 -0.733295 -45.8593 -2.6451 -3.64516 25.5634 41.4936 
16.7357 32.9866 -47.9445 13.232 11.0641 -54.7034 -7.36234e-007 -1.186 -1.5018 -0.0558124 -3.103 1.43576 1.19765e-006 9.96399 0.213401 -0.0337064 -6.20643 2.87499 -1.43805e-006 13.134 -3.2573 -0.0337066 -6.20642 2.87496 -8.3094e-007 20.686 -1.6905 -0.0291024 -1.33356 -4.13926 -1.06873e-006 7.23801 -0.1237 7.13317 0.152081 -2.43682 1.7069 20.075 5.0056 2.94883 -1.93676 -17.8119 13.6458 -0.0470094 -4.84899 -54.3774 -0.678536 -45.6289 28.3255 -0.975893 2.28881 -13.048 -14.2949 -47.947 22.1583 -0.529989 10.8316 1.28462 -22.3811 10.3589 0.786004 0.111997 2.58171 29.0018 36.8212 -34.7962 0.360098 -0.877999 4.2331 -6.33705 -0.117362 -11.5742 1.8127 -1.21601 2.2227 6.48486 1.48413 12.0601 0.9571 1.114 1.7695 -3.18055e-015 1.59028e-015 7.95139e-016 4.1246 0.486993 4.1451 -4.8873 4.53863 12.6178 3.4052 -1.454 2.7682 -36.3635 10.033 17.8993 1.4531 -1.79499 1.2713 -37.4307 10.1387 18.4809 5.6954 0.209988 2.1184 -1.58701 -0.57704 1.61799 3.9766 -1.53999 2.3863 -43.8284 12.1761 22.7531 1.4042 -1.926 1.125 -9.03165 4.06863 4.02213 2.0956 0.66 -0.3894 -3.18055e-015 1.59028e-015 7.95139e-016 5.0395 -0.0900129 2.4971 -8.44087 -1.94817 5.79526 3.7921 -1.55199 1.4806 -14.2679 6.4828 7.41475 1.4655 -1.808 0.960899 -15.7293 7.01831 8.23433 4.9141 -1.269 0.359103 10.4039 -12.5936 2.33183 3.1477 -1.685 0.846198 -18.2186 8.51744 9.60864 0.805499 -1.58501 0.795501 -8.80548 4.59367 4.39822 -1.7069 20.075 5.0056 -6.56165 -1.04991 29.9693 -13.6458 -0.0470162 -4.849 37.0997 -28.4366 54.6514 -28.3255 -0.97589 2.28879 20.2212 2.72634 38.1183 -22.1583 -0.530016 10.8316 -38.3766 -49.4265 -35.2449 -0.786001 0.112005 2.5817 -29.9218 33.5002 36.3093 -0.360107 -0.877993 4.2331 3.27636 -2.39823 9.40457 -1.81269 -1.216 2.2227 -4.4436 5.02815 -15.268 -0.9571 1.114 1.7695 0 1.59028e-015 -0 -4.1246 0.48701 4.1451 13.181 6.35511 -12.1375 -3.4052 -1.45401 2.7682 44.3511 10.8048 -10.7982 -1.4531 -1.795 1.2713 45.4781 10.9508 -11.1601 -5.6954 0.210002 2.1184 7.07148 1.28866 -2.16554 -3.9766 -1.54 2.3863 52.3089 13.53 -14.1043 -1.4042 -1.926 1.125 15.1721 5.32231 -2.78763 -2.0956 0.66 -0.3894 0 1.59028e-015 -0 -5.03951 -0.089988 2.4971 14.4791 -0.343076 -5.3092 -3.7921 -1.55201 1.4806 20.9794 7.69275 -5.18754 -1.4655 -1.808 0.960903 22.5759 8.18064 -5.68283 -4.91411 -1.26899 0.359202 -6.22066 -8.66591 -6.14885 -3.1477 -1.68501 0.846198 25.2633 9.75598 -6.40172 -0.8055 -1.585 0.795497 14.9452 6.18834 -3.30338 8.367 -8.20659 0.598201 57.7597 -36.5331 38.9045 2.1923 -43.463 -0.493196 -179.671 35.7399 -176.139 0.73329 -45.8593 -2.64509 9.52928 18.4674 -39.6298 -8.367 -8.2066 0.5982 -52.7097 -29.3287 -19.729 -2.19228 -43.463 -0.493091 163.588 34.0237 -153.858 -0.733298 -45.8593 -2.64509 -3.3694 24.7854 40.5925 
